<svg width="996" height="423" viewBox="0 0 996 423" fill="none" xmlns="http://www.w3.org/2000/svg">
<path fill-rule="evenodd" clip-rule="evenodd" d="M86.3376 186.098L99.956 229.326H101.434L227.677 4.09326H176.825L151.266 54.7694L115.411 127.293L101.456 155.517L86.3376 186.098ZM97.7805 65.1773L80.4431 4.09326H29L68.8568 130.61L97.7805 65.1773Z" fill="white"/>
<path d="M263.622 189.469C267.551 189.469 271.284 188.782 274.82 187.407C278.552 186.032 282.285 184.362 286.018 182.397L300.457 214.222C293.974 217.366 287.098 219.821 279.829 221.589C272.757 223.357 265.881 224.241 259.202 224.241C245.057 224.241 232.681 221.884 222.072 217.169C211.66 212.258 203.508 204.891 197.614 195.068C191.72 185.049 188.774 172.575 188.774 157.644C188.774 149.983 190.149 142.026 192.899 133.775C195.846 125.524 200.266 117.863 206.16 110.79C212.25 103.522 220.108 97.628 229.734 93.1096C239.557 88.5912 251.344 86.332 265.095 86.332C272.561 86.332 279.928 87.3143 287.196 89.2788C294.661 91.0469 301.439 94.3865 307.529 99.2979C313.816 104.013 319.12 110.692 323.442 119.336C327.96 127.98 331.103 139.178 332.871 152.929L229.145 178.566L222.662 155.581L303.404 134.659L288.964 139.079C287.393 132.4 284.249 127.292 279.535 123.756C275.016 120.22 269.712 118.452 263.622 118.452C255.567 118.452 249.085 120.122 244.173 123.461C239.262 126.801 235.628 131.123 233.27 136.427C231.109 141.732 230.029 147.232 230.029 152.929C230.029 162.752 231.797 170.315 235.333 175.62C239.065 180.924 243.486 184.558 248.593 186.523C253.898 188.487 258.907 189.469 263.622 189.469ZM393.778 223.652C390.242 223.652 385.232 223.063 378.749 221.884C372.266 220.902 365.39 218.643 358.122 215.106C351.049 211.57 344.763 206.168 339.262 198.899L359.006 177.388C364.31 183.281 369.123 187.505 373.445 190.059C377.767 192.613 381.598 194.184 384.937 194.774C388.473 195.167 391.322 195.363 393.483 195.363C399.573 195.363 403.502 194.086 405.27 191.532C407.038 188.978 407.922 186.621 407.922 184.46C407.922 181.513 406.645 179.156 404.091 177.388C401.734 175.423 398.591 173.753 394.662 172.378C390.929 171.003 387 169.53 382.875 167.958C372.659 164.029 365.292 158.823 360.774 152.34C356.452 145.857 354.291 138.785 354.291 131.123C354.291 127.194 354.978 122.774 356.354 117.863C357.925 112.755 360.479 107.844 364.015 103.129C367.748 98.4138 372.856 94.4848 379.338 91.3415C386.018 88.1983 394.564 86.6267 404.975 86.6267C410.869 86.6267 416.763 87.1178 422.656 88.1001C428.746 88.8859 434.64 90.5557 440.337 93.1096C446.23 95.467 451.829 98.9049 457.134 103.423L438.569 126.703C434.443 122.577 430.121 119.434 425.603 117.273C421.281 115.112 416.566 114.032 411.458 114.032C407.726 114.032 404.779 114.621 402.618 115.8C400.457 116.782 398.885 118.157 397.903 119.925C396.921 121.693 396.43 123.56 396.43 125.524C396.43 128.667 397.903 131.221 400.85 133.186C403.797 135.15 407.333 136.82 411.458 138.195C415.78 139.571 420.004 141.142 424.13 142.91C430.023 145.268 435.033 148.214 439.158 151.751C443.284 155.287 446.23 159.51 447.999 164.422C449.963 169.137 450.552 174.736 449.767 181.218C449.177 186.916 447.507 192.416 444.757 197.72C442.007 202.828 438.274 207.347 433.559 211.276C429.041 215.205 423.442 218.25 416.763 220.411C410.083 222.572 402.422 223.652 393.778 223.652ZM508.479 35.6473H549.734L542.956 91.6362H574.192L570.361 123.756H539.125L527.338 221H486.083L497.871 123.756H477.832L481.663 91.6362H501.701L508.479 35.6473ZM601.171 92.2256H642.426L626.514 221H585.259L601.171 92.2256ZM603.823 46.8451C603.823 40.5586 605.984 35.2544 610.306 30.9325C614.628 26.6105 620.325 24.4495 627.398 24.4495C632.309 24.4495 637.22 25.9229 642.132 28.8697C647.043 31.6201 649.499 36.5314 649.499 43.6036C649.499 49.6937 647.338 54.9979 643.016 59.5163C638.694 63.8382 632.997 65.9992 625.924 65.9992C621.013 65.9992 616.102 64.624 611.19 61.8737C606.279 58.9269 603.823 53.9174 603.823 46.8451ZM728.82 285.829C716.247 285.829 705.737 284.454 697.289 281.704C689.038 278.953 682.163 275.614 676.662 271.685C671.161 267.756 666.25 264.023 661.928 260.487L689.628 232.198C692.575 234.948 695.914 237.698 699.647 240.449C703.379 243.199 707.898 245.458 713.202 247.226C718.703 248.994 725.186 249.878 732.651 249.878C738.348 249.878 743.652 248.7 748.563 246.342C753.671 244.181 757.895 240.94 761.235 236.618C764.771 232.296 766.834 226.894 767.423 220.411L770.664 192.122L771.843 199.488C768.307 206.168 762.61 212.061 754.752 217.169C746.894 222.08 736.875 224.536 724.695 224.536C712.907 224.536 702.201 221.982 692.575 216.875C683.145 211.57 675.581 203.909 669.884 193.89C664.384 183.871 661.633 171.592 661.633 157.055C661.633 149.786 663.107 142.026 666.054 133.775C669.197 125.524 673.813 117.764 679.903 110.496C686.19 103.227 694.048 97.3333 703.478 92.8149C712.907 88.1001 724.007 85.7426 736.776 85.7426C748.171 85.7426 757.699 87.4125 765.36 90.7522C773.218 93.8954 778.915 97.8245 782.452 102.539L779.21 108.728L786.282 92.2256H824.296L807.204 227.778C805.829 240.351 801.409 250.959 793.944 259.603C786.479 268.247 777.049 274.73 765.655 279.052C754.261 283.57 741.982 285.829 728.82 285.829ZM744.143 119.336C736.875 119.336 730.686 120.613 725.579 123.167C720.471 125.524 716.247 128.667 712.907 132.597C709.764 136.329 707.407 140.356 705.835 144.678C704.46 149 703.772 153.126 703.772 157.055C703.772 164.324 705.148 170.512 707.898 175.62C710.845 180.531 714.97 184.362 720.274 187.112C725.579 189.666 731.865 190.943 739.134 190.943C743.456 190.943 747.679 190.255 751.805 188.88C755.93 187.308 759.761 185.147 763.297 182.397C767.03 179.45 770.37 175.816 773.316 171.494L777.147 139.963C775.772 135.642 773.513 132.007 770.37 129.06C767.423 125.917 763.69 123.56 759.172 121.988C754.85 120.22 749.84 119.336 744.143 119.336ZM918.222 189.469C922.151 189.469 925.884 188.782 929.42 187.407C933.153 186.032 936.885 184.362 940.618 182.397L955.057 214.222C948.574 217.366 941.698 219.821 934.43 221.589C927.357 223.357 920.481 224.241 913.802 224.241C899.657 224.241 887.281 221.884 876.673 217.169C866.261 212.258 858.108 204.891 852.214 195.068C846.321 185.049 843.374 172.575 843.374 157.644C843.374 149.983 844.749 142.026 847.499 133.775C850.446 125.524 854.866 117.863 860.76 110.79C866.85 103.522 874.708 97.628 884.334 93.1096C894.157 88.5912 905.944 86.332 919.696 86.332C927.161 86.332 934.528 87.3143 941.796 89.2788C949.262 91.0469 956.039 94.3865 962.129 99.2979C968.416 104.013 973.72 110.692 978.042 119.336C982.56 127.98 985.704 139.178 987.472 152.929L883.745 178.566L877.262 155.581L958.004 134.659L943.565 139.079C941.993 132.4 938.85 127.292 934.135 123.756C929.616 120.22 924.312 118.452 918.222 118.452C910.168 118.452 903.685 120.122 898.773 123.461C893.862 126.801 890.228 131.123 887.87 136.427C885.709 141.732 884.629 147.232 884.629 152.929C884.629 162.752 886.397 170.315 889.933 175.62C893.666 180.924 898.086 184.558 903.194 186.523C908.498 188.487 913.507 189.469 918.222 189.469Z" fill="white"/>
<path d="M565.794 346.854H574.816L586.704 375.943L598.593 346.854H607.615L590.414 387.326H582.995L565.794 346.854ZM634.166 388.591C626.69 388.591 620.816 386.736 616.544 383.026C612.328 379.26 610.22 373.976 610.22 367.174C610.22 360.542 612.103 355.286 615.869 351.407C619.691 347.529 625.116 345.59 632.142 345.59C636.808 345.59 640.77 346.489 644.031 348.288C647.291 350.03 649.736 352.475 651.366 355.623C653.052 358.715 653.896 362.256 653.896 366.247V370.463H618.314C618.595 374.285 620.197 377.152 623.12 379.063C626.099 380.918 630.119 381.845 635.177 381.845C637.763 381.845 640.377 381.621 643.019 381.171C645.661 380.665 647.993 380.019 650.017 379.232V386.061C648.218 386.792 645.829 387.382 642.85 387.832C639.927 388.338 637.032 388.591 634.166 388.591ZM645.886 364.476C645.773 360.654 644.508 357.703 642.091 355.623C639.73 353.487 636.358 352.419 631.973 352.419C627.701 352.419 624.385 353.515 622.024 355.708C619.663 357.9 618.427 360.823 618.314 364.476H645.886ZM676.526 388.591C673.715 388.591 670.736 388.225 667.588 387.495C664.44 386.82 661.967 385.893 660.168 384.712V377.461C662.361 378.754 664.89 379.822 667.757 380.665C670.624 381.452 673.406 381.845 676.104 381.845C679.14 381.845 681.36 381.48 682.765 380.749C684.17 380.019 684.873 378.838 684.873 377.208C684.873 375.971 684.536 374.988 683.861 374.257C683.243 373.47 682.147 372.767 680.573 372.149C679.055 371.531 676.751 370.8 673.659 369.957C670.343 369.001 667.701 368.046 665.733 367.09C663.822 366.078 662.361 364.814 661.349 363.296C660.393 361.778 659.916 359.811 659.916 357.394C659.916 353.515 661.433 350.592 664.469 348.625C667.56 346.601 671.692 345.59 676.863 345.59C679.561 345.59 682.203 345.843 684.789 346.349C687.374 346.854 689.454 347.557 691.028 348.456V355.539C689.398 354.583 687.374 353.824 684.957 353.262C682.596 352.7 680.179 352.419 677.706 352.419C674.727 352.419 672.45 352.785 670.877 353.515C669.303 354.246 668.516 355.539 668.516 357.394C668.516 358.574 668.853 359.53 669.528 360.261C670.202 360.991 671.27 361.638 672.732 362.2C674.249 362.706 676.638 363.38 679.898 364.223C685.013 365.629 688.555 367.287 690.522 369.198C692.546 371.109 693.557 373.751 693.557 377.124C693.557 380.609 692.124 383.391 689.257 385.471C686.391 387.551 682.147 388.591 676.526 388.591ZM715.615 388.591C711.512 388.591 708.336 387.41 706.088 385.049C703.895 382.689 702.799 379.344 702.799 375.016V353.431H696.644V346.854H702.799V334.713H711.399V346.854H721.349V353.431H711.399V374.426C711.399 377.124 711.905 379.035 712.917 380.159C713.985 381.283 715.896 381.845 718.651 381.845C720.281 381.845 721.911 381.48 723.541 380.749V387.495C721.405 388.225 718.763 388.591 715.615 388.591ZM734.926 338.929C733.52 338.929 732.34 338.451 731.384 337.495C730.429 336.54 729.951 335.359 729.951 333.954C729.951 332.549 730.429 331.368 731.384 330.413C732.34 329.457 733.52 328.979 734.926 328.979C736.387 328.979 737.596 329.457 738.551 330.413C739.563 331.368 740.069 332.549 740.069 333.954C740.069 335.359 739.563 336.54 738.551 337.495C737.596 338.451 736.387 338.929 734.926 338.929ZM730.625 346.854H739.31V387.326H730.625V346.854ZM770.591 406.719C767.837 406.719 765.139 406.494 762.497 406.044C759.911 405.594 757.719 404.948 755.92 404.105V397.107C760.136 399.018 765.026 399.973 770.591 399.973C775.819 399.973 779.613 398.821 781.974 396.516C784.391 394.268 785.599 390.839 785.599 386.23V381.93C781.889 386.37 776.437 388.591 769.242 388.591C765.139 388.591 761.457 387.691 758.197 385.893C754.936 384.094 752.379 381.564 750.524 378.304C748.669 375.044 747.742 371.306 747.742 367.09C747.742 362.818 748.641 359.08 750.44 355.876C752.295 352.616 754.824 350.087 758.028 348.288C761.288 346.489 764.942 345.59 768.989 345.59C772.755 345.59 775.931 346.152 778.517 347.276C781.159 348.344 783.604 350.143 785.852 352.672V346.854H794.115V385.302C794.115 392.216 792.176 397.5 788.297 401.154C784.475 404.864 778.573 406.719 770.591 406.719ZM770.928 381.845C774.413 381.845 777.477 380.918 780.119 379.063C782.817 377.208 784.644 374.735 785.599 371.643V362.537C784.531 359.389 782.676 356.916 780.034 355.117C777.449 353.319 774.413 352.419 770.928 352.419C768.174 352.419 765.673 353.038 763.424 354.274C761.232 355.455 759.489 357.169 758.197 359.417C756.96 361.666 756.342 364.223 756.342 367.09C756.342 370.013 756.96 372.599 758.197 374.847C759.489 377.039 761.232 378.754 763.424 379.99C765.673 381.227 768.174 381.845 770.928 381.845ZM825.747 388.591C818.271 388.591 812.397 386.736 808.125 383.026C803.909 379.26 801.801 373.976 801.801 367.174C801.801 360.542 803.684 355.286 807.45 351.407C811.272 347.529 816.697 345.59 823.723 345.59C828.389 345.59 832.351 346.489 835.612 348.288C838.872 350.03 841.317 352.475 842.947 355.623C844.633 358.715 845.477 362.256 845.477 366.247V370.463H809.895C810.176 374.285 811.778 377.152 814.701 379.063C817.68 380.918 821.7 381.845 826.758 381.845C829.344 381.845 831.958 381.621 834.6 381.171C837.242 380.665 839.574 380.019 841.598 379.232V386.061C839.799 386.792 837.41 387.382 834.431 387.832C831.508 388.338 828.613 388.591 825.747 388.591ZM837.467 364.476C837.354 360.654 836.089 357.703 833.672 355.623C831.312 353.487 827.939 352.419 823.554 352.419C819.282 352.419 815.966 353.515 813.605 355.708C811.244 357.9 810.008 360.823 809.895 364.476H837.467ZM855.459 387.326C854.335 387.326 853.38 386.961 852.593 386.23C851.862 385.443 851.497 384.487 851.497 383.363C851.497 382.239 851.862 381.283 852.593 380.496C853.38 379.709 854.335 379.316 855.459 379.316C856.584 379.316 857.539 379.709 858.326 380.496C859.113 381.283 859.507 382.239 859.507 383.363C859.507 384.487 859.113 385.443 858.326 386.23C857.539 386.961 856.584 387.326 855.459 387.326ZM869.925 353.431H863.77V346.854H869.925V339.182C869.925 334.516 871.415 330.919 874.394 328.389C877.373 325.86 881.083 324.595 885.524 324.595C887.772 324.595 889.964 324.932 892.1 325.607V332.521C890.527 331.902 888.896 331.593 887.21 331.593C884.343 331.593 882.151 332.296 880.634 333.701C879.172 335.05 878.441 337.046 878.441 339.688V346.854H905.76V387.326H897.244V353.431H878.441V387.326H869.925V353.431ZM901.46 338.929C899.998 338.929 898.79 338.451 897.834 337.495C896.878 336.54 896.401 335.359 896.401 333.954C896.401 332.549 896.878 331.368 897.834 330.413C898.846 329.457 900.054 328.979 901.46 328.979C902.865 328.979 904.045 329.457 905.001 330.413C906.013 331.368 906.518 332.549 906.518 333.954C906.518 335.359 906.013 336.54 905.001 337.495C904.045 338.451 902.865 338.929 901.46 338.929Z" fill="white"/>
</svg>
