<svg width="996" height="295" viewBox="0 0 996 295" fill="none" xmlns="http://www.w3.org/2000/svg">
<path fill-rule="evenodd" clip-rule="evenodd" d="M86.3376 186.098L99.956 229.326H101.434L227.677 4.09326H176.825L151.266 54.7694L115.411 127.293L101.456 155.517L86.3376 186.098ZM97.7805 65.1773L80.4431 4.09326H29L68.8568 130.61L97.7805 65.1773Z" fill="white"/>
<path d="M263.622 189.469C267.551 189.469 271.284 188.782 274.82 187.407C278.552 186.032 282.285 184.362 286.018 182.397L300.457 214.222C293.974 217.366 287.098 219.821 279.829 221.589C272.757 223.357 265.881 224.241 259.202 224.241C245.057 224.241 232.681 221.884 222.072 217.169C211.66 212.258 203.508 204.891 197.614 195.068C191.72 185.049 188.774 172.575 188.774 157.644C188.774 149.983 190.149 142.026 192.899 133.775C195.846 125.524 200.266 117.863 206.16 110.79C212.25 103.522 220.108 97.628 229.734 93.1096C239.557 88.5912 251.344 86.332 265.095 86.332C272.561 86.332 279.928 87.3143 287.196 89.2788C294.661 91.0469 301.439 94.3865 307.529 99.2979C313.816 104.013 319.12 110.692 323.442 119.336C327.96 127.98 331.103 139.178 332.871 152.929L229.145 178.566L222.662 155.581L303.404 134.659L288.964 139.079C287.393 132.4 284.249 127.292 279.535 123.756C275.016 120.22 269.712 118.452 263.622 118.452C255.567 118.452 249.085 120.122 244.173 123.461C239.262 126.801 235.628 131.123 233.27 136.427C231.109 141.732 230.029 147.232 230.029 152.929C230.029 162.752 231.797 170.315 235.333 175.62C239.065 180.924 243.486 184.558 248.593 186.523C253.898 188.487 258.907 189.469 263.622 189.469ZM393.778 223.652C390.242 223.652 385.232 223.063 378.749 221.884C372.266 220.902 365.39 218.643 358.122 215.106C351.049 211.57 344.763 206.168 339.262 198.899L359.006 177.388C364.31 183.281 369.123 187.505 373.445 190.059C377.767 192.613 381.598 194.184 384.937 194.774C388.473 195.167 391.322 195.363 393.483 195.363C399.573 195.363 403.502 194.086 405.27 191.532C407.038 188.978 407.922 186.621 407.922 184.46C407.922 181.513 406.645 179.156 404.091 177.388C401.734 175.423 398.591 173.753 394.662 172.378C390.929 171.003 387 169.53 382.875 167.958C372.659 164.029 365.292 158.823 360.774 152.34C356.452 145.857 354.291 138.785 354.291 131.123C354.291 127.194 354.978 122.774 356.354 117.863C357.925 112.755 360.479 107.844 364.015 103.129C367.748 98.4138 372.856 94.4848 379.338 91.3415C386.018 88.1983 394.564 86.6267 404.975 86.6267C410.869 86.6267 416.763 87.1178 422.656 88.1001C428.746 88.8859 434.64 90.5557 440.337 93.1096C446.23 95.467 451.829 98.9049 457.134 103.423L438.569 126.703C434.443 122.577 430.121 119.434 425.603 117.273C421.281 115.112 416.566 114.032 411.458 114.032C407.726 114.032 404.779 114.621 402.618 115.8C400.457 116.782 398.885 118.157 397.903 119.925C396.921 121.693 396.43 123.56 396.43 125.524C396.43 128.667 397.903 131.221 400.85 133.186C403.797 135.15 407.333 136.82 411.458 138.195C415.78 139.571 420.004 141.142 424.13 142.91C430.023 145.268 435.033 148.214 439.158 151.751C443.284 155.287 446.23 159.51 447.999 164.422C449.963 169.137 450.552 174.736 449.767 181.218C449.177 186.916 447.507 192.416 444.757 197.72C442.007 202.828 438.274 207.347 433.559 211.276C429.041 215.205 423.442 218.25 416.763 220.411C410.083 222.572 402.422 223.652 393.778 223.652ZM508.479 35.6473H549.734L542.956 91.6362H574.192L570.361 123.756H539.125L527.338 221H486.083L497.871 123.756H477.832L481.663 91.6362H501.701L508.479 35.6473ZM601.171 92.2256H642.426L626.514 221H585.259L601.171 92.2256ZM603.823 46.8451C603.823 40.5586 605.984 35.2544 610.306 30.9325C614.628 26.6105 620.325 24.4495 627.398 24.4495C632.309 24.4495 637.22 25.9229 642.132 28.8697C647.043 31.6201 649.499 36.5314 649.499 43.6036C649.499 49.6937 647.338 54.9979 643.016 59.5163C638.694 63.8382 632.997 65.9992 625.924 65.9992C621.013 65.9992 616.102 64.624 611.19 61.8737C606.279 58.9269 603.823 53.9174 603.823 46.8451ZM728.82 285.829C716.247 285.829 705.737 284.454 697.289 281.704C689.038 278.953 682.163 275.614 676.662 271.685C671.161 267.756 666.25 264.023 661.928 260.487L689.628 232.198C692.575 234.948 695.914 237.698 699.647 240.449C703.379 243.199 707.898 245.458 713.202 247.226C718.703 248.994 725.186 249.878 732.651 249.878C738.348 249.878 743.652 248.7 748.563 246.342C753.671 244.181 757.895 240.94 761.235 236.618C764.771 232.296 766.834 226.894 767.423 220.411L770.664 192.122L771.843 199.488C768.307 206.168 762.61 212.061 754.752 217.169C746.894 222.08 736.875 224.536 724.695 224.536C712.907 224.536 702.201 221.982 692.575 216.875C683.145 211.57 675.581 203.909 669.884 193.89C664.384 183.871 661.633 171.592 661.633 157.055C661.633 149.786 663.107 142.026 666.054 133.775C669.197 125.524 673.813 117.764 679.903 110.496C686.19 103.227 694.048 97.3333 703.478 92.8149C712.907 88.1001 724.007 85.7426 736.776 85.7426C748.171 85.7426 757.699 87.4125 765.36 90.7522C773.218 93.8954 778.915 97.8245 782.452 102.539L779.21 108.728L786.282 92.2256H824.296L807.204 227.778C805.829 240.351 801.409 250.959 793.944 259.603C786.479 268.247 777.049 274.73 765.655 279.052C754.261 283.57 741.982 285.829 728.82 285.829ZM744.143 119.336C736.875 119.336 730.686 120.613 725.579 123.167C720.471 125.524 716.247 128.667 712.907 132.597C709.764 136.329 707.407 140.356 705.835 144.678C704.46 149 703.772 153.126 703.772 157.055C703.772 164.324 705.148 170.512 707.898 175.62C710.845 180.531 714.97 184.362 720.274 187.112C725.579 189.666 731.865 190.943 739.134 190.943C743.456 190.943 747.679 190.255 751.805 188.88C755.93 187.308 759.761 185.147 763.297 182.397C767.03 179.45 770.37 175.816 773.316 171.494L777.147 139.963C775.772 135.642 773.513 132.007 770.37 129.06C767.423 125.917 763.69 123.56 759.172 121.988C754.85 120.22 749.84 119.336 744.143 119.336ZM918.222 189.469C922.151 189.469 925.884 188.782 929.42 187.407C933.153 186.032 936.885 184.362 940.618 182.397L955.057 214.222C948.574 217.366 941.698 219.821 934.43 221.589C927.357 223.357 920.481 224.241 913.802 224.241C899.657 224.241 887.281 221.884 876.673 217.169C866.261 212.258 858.108 204.891 852.214 195.068C846.321 185.049 843.374 172.575 843.374 157.644C843.374 149.983 844.749 142.026 847.499 133.775C850.446 125.524 854.866 117.863 860.76 110.79C866.85 103.522 874.708 97.628 884.334 93.1096C894.157 88.5912 905.944 86.332 919.696 86.332C927.161 86.332 934.528 87.3143 941.796 89.2788C949.262 91.0469 956.039 94.3865 962.129 99.2979C968.416 104.013 973.72 110.692 978.042 119.336C982.56 127.98 985.704 139.178 987.472 152.929L883.745 178.566L877.262 155.581L958.004 134.659L943.565 139.079C941.993 132.4 938.85 127.292 934.135 123.756C929.616 120.22 924.312 118.452 918.222 118.452C910.168 118.452 903.685 120.122 898.773 123.461C893.862 126.801 890.228 131.123 887.87 136.427C885.709 141.732 884.629 147.232 884.629 152.929C884.629 162.752 886.397 170.315 889.933 175.62C893.666 180.924 898.086 184.558 903.194 186.523C908.498 188.487 913.507 189.469 918.222 189.469Z" fill="white"/>
</svg>
