<?xml version="1.0" encoding="utf-8"?>
<!-- Generator: Adobe Illustrator 28.2.0, SVG Export Plug-In . SVG Version: 6.00 Build 0)  -->
<svg version="1.1" id="Layer_1" xmlns="http://www.w3.org/2000/svg" xmlns:xlink="http://www.w3.org/1999/xlink" x="0px" y="0px"
	 viewBox="0 0 822 206" style="enable-background:new 0 0 822 206;" xml:space="preserve">
<style type="text/css">
	.st0{fill:#2078E9;}
	.st1{opacity:0.96;fill-rule:evenodd;clip-rule:evenodd;fill:#FFFFFF;enable-background:new    ;}
	.st2{fill:#1A1A1A;}
	.st3{opacity:0.96;fill-rule:evenodd;clip-rule:evenodd;fill:#1A1A1A;enable-background:new    ;}
</style>
<circle class="st0" cx="117.54" cy="103" r="93.54"/>
<path class="st1" d="M103.83,169.49l-5.57-17.59c-0.86-2.73-0.64-5.69,0.64-8.25l30.7-61.76l9.65-19.03
	c2.26-4.46,6.83-7.26,11.83-7.26h20.39c0.85,0,1.38,0.91,0.96,1.65l-63.54,112.77c-0.44,0.76-1.67,1.41-2.41,1.41l0,0
	C105.26,171.42,104.2,170.64,103.83,169.49z M68.22,57.04c-0.23-0.71,0.31-1.44,1.05-1.44h18.75c5.89,0,11.13,3.96,12.75,9.62
	l5.23,18.34c0.85,2.98,0.63,6.19-0.63,9.02l-15.12,34.03L68.22,57.04z"/>
<g>
	<path class="st2" d="M337.38,149.8c2.02,1.88,3.79,3.22,5.3,4.02c1.51,0.8,3.25,1.21,5.22,1.21c4.82,0,9.5-2.63,14.02-7.9
		l13.72,8.97l-6.19,6.16c-3.26,2.77-7.27,5.05-12.02,6.83c-2.32,0.8-4.58,1.43-6.77,1.87c-2.2,0.45-4.5,0.67-6.91,0.67
		c-10,0-18.1-3.42-24.28-10.26c-6.19-6.84-8.71-15.32-7.56-25.43c1.17-10.28,5.63-18.92,13.38-25.9
		c7.76-6.98,16.63-10.47,26.63-10.47c9.46,0,16.23,2.11,20.31,6.33c4.08,4.22,6.81,7.67,8.2,10.36c1.39,2.69,2.72,6.28,4,10.77
		L337.38,149.8z M362.83,121.41c-2.21-4.11-6.18-6.17-11.89-6.17c-4.38,0-8.55,1.74-12.51,5.21c-3.97,3.47-6.19,7.37-6.69,11.7
		c-0.04,0.36-0.06,0.93-0.05,1.69c0.01,0.77,0.1,1.6,0.28,2.5L362.83,121.41z"/>
	<path class="st2" d="M390.36,148.99c4.56,3.61,7.87,5.74,9.93,6.39l4.82,0.97h3.06c3.25,0,5.95-0.71,8.1-2.14
		c2.15-1.43,3.36-3.3,3.62-5.63c0.19-1.7-0.19-3.03-1.15-4.02c-0.9-0.71-2.86-1.56-5.87-2.54l-5.21-1.34l-5.43-1.74
		c-8.81-3.39-12.75-9.24-11.81-17.55c0.72-6.34,4.02-11.61,9.9-15.8c5.87-4.2,13.1-6.29,21.67-6.29c3.3,0,6.67,0.27,10.09,0.8
		l5.32,1.48c1.9,0.53,4.5,1.65,7.79,3.35l-6.61,14.6l-5.46-2.95c-1.43-0.8-2.92-1.4-4.44-1.81c-1.53-0.4-2.73-0.69-3.61-0.87
		c-0.88-0.18-1.9-0.27-3.06-0.27c-2.51,0-4.62,0.58-6.32,1.74c-1.7,1.16-2.67,2.77-2.9,4.82c-0.36,3.22,2.1,5.54,7.41,6.97
		l5.48,1.47c1.83,0.45,3.61,0.98,5.33,1.61c1.72,0.63,3.48,1.39,5.26,2.28c2.44,1.43,4.26,3.55,5.46,6.36
		c1.21,2.81,1.62,5.87,1.25,9.18c-0.82,7.23-4.2,12.99-10.13,17.28c-5.93,4.28-13.5,6.43-22.69,6.43c-2.95,0-5.04-0.07-6.27-0.2
		c-1.24-0.13-2.7-0.38-4.4-0.74c-1.7-0.36-3.08-0.63-4.13-0.8c-1.74-0.45-3.25-0.89-4.54-1.34c-1.29-0.44-3.79-1.65-7.49-3.61
		L390.36,148.99z"/>
	<path class="st2" d="M486.08,75.03l-3.01,26.55h14.33l-7.73,17.41h-8.57l-5.69,50.23h-22.23l5.69-50.23h-10.18L486.08,75.03z"/>
	<path class="st2" d="M499.6,110.56l23.27-11.52l-7.95,70.18h-21.97L499.6,110.56z M515.49,71.98c3.39,0,6.16,1.18,8.3,3.55
		c2.14,2.37,3.02,5.25,2.64,8.64c-0.36,3.21-1.87,6.05-4.51,8.5c-2.65,2.46-5.67,3.69-9.06,3.69c-3.48,0-6.29-1.18-8.44-3.55
		c-2.14-2.37-3.03-5.2-2.65-8.51c0.36-3.22,1.89-6.07,4.59-8.57C509.06,73.23,512.1,71.98,515.49,71.98z"/>
	<path class="st2" d="M585,101.58h21.03l-7.21,63.62c-0.6,5.27-1.82,9.55-3.66,12.86c-1.85,3.3-5.65,7.08-11.39,11.32
		c-5.75,4.24-14.7,6.36-26.84,6.36c-5.09,0-9.36-0.36-12.8-1.07c-3.45-0.72-6.24-1.5-8.37-2.34c-2.13-0.85-5.09-2.39-8.85-4.62
		l10.12-14.86l4.59,3.21l5.9,2.28c3.01,0.98,6.53,1.47,10.55,1.47c5.63,0,10.18-1.21,13.67-3.61c3.49-2.41,5.47-5.72,5.95-9.91
		l0.74-6.56c-0.61,0.63-1.17,1.25-1.69,1.87c-1.01,1.07-1.91,1.92-2.7,2.55l-4.71,2.54l-6.23,1.74c-2.18,0.36-3.66,0.56-4.42,0.6
		c-0.77,0.05-1.42,0.07-1.95,0.07c-8.93,0-15.85-3.15-20.76-9.44c-4.91-6.29-6.79-14.58-5.62-24.84
		c1.16-10.27,5.01-18.59,11.54-24.98c6.53-6.38,14.34-9.58,23.45-9.58c3.48,0,6.59,0.52,9.33,1.54c2.74,1.03,4.64,1.99,5.7,2.88
		l3.86,3.75L585,101.58z M552.85,135.87c-0.57,5,0.31,9.11,2.62,12.32c2.42,3.04,5.73,4.55,9.93,4.55c2.41,0,4.66-0.49,6.73-1.47
		c2.07-0.98,3.6-2.21,4.57-3.69c0.97-1.47,1.78-3.1,2.43-4.89l1.29-6.7c0.46-4.02,0.66-6.96,0.6-8.84c-0.06-1.87-0.47-3.5-1.26-4.89
		c-0.78-1.38-2.12-2.59-4.01-3.62c-1.89-1.02-3.87-1.54-5.92-1.54c-4.2,0-7.96,1.65-11.28,4.96c-3.14,3.3-5.01,7.59-5.61,12.86
		L552.85,135.87z"/>
	<path class="st2" d="M639.8,149.8c2.02,1.88,3.79,3.22,5.3,4.02c1.51,0.8,3.25,1.21,5.22,1.21c4.82,0,9.5-2.63,14.02-7.9
		l13.72,8.97l-6.19,6.16c-3.26,2.77-7.27,5.05-12.02,6.83c-2.32,0.8-4.58,1.43-6.77,1.87c-2.2,0.45-4.5,0.67-6.91,0.67
		c-10,0-18.1-3.42-24.28-10.26c-6.19-6.84-8.71-15.32-7.56-25.43c1.17-10.28,5.63-18.92,13.38-25.9
		c7.76-6.98,16.63-10.47,26.63-10.47c9.46,0,16.23,2.11,20.31,6.33c4.08,4.22,6.81,7.67,8.2,10.36c1.39,2.69,2.72,6.28,4,10.77
		L639.8,149.8z M665.25,121.41c-2.21-4.11-6.18-6.17-11.89-6.17c-4.38,0-8.55,1.74-12.51,5.21c-3.97,3.47-6.19,7.37-6.69,11.7
		c-0.04,0.36-0.06,0.93-0.05,1.69c0.01,0.77,0.1,1.6,0.28,2.5L665.25,121.41z"/>
	<path class="st2" d="M701.6,145.78c3.3,0,6.09,1.23,8.35,3.68c2.27,2.46,3.21,5.38,2.82,8.77c-0.39,3.48-1.96,6.43-4.68,8.84
		c-2.73,2.41-5.88,3.62-9.45,3.62c-3.48,0-6.27-1.23-8.36-3.68c-2.09-2.45-2.93-5.43-2.54-8.91c0.36-3.22,1.89-6.07,4.59-8.57
		C695.02,147.03,698.11,145.78,701.6,145.78z"/>
	<path class="st2" d="M725.62,101.58h6.56l0.88-7.8c0.81-7.17,3.63-12.89,8.44-17.15c4.81-4.26,10.79-6.39,17.94-6.39
		c3.75,0,8.48,0.85,14.18,2.54l-6.6,16.88c-1.74-1.16-3.55-1.74-5.43-1.74c-3.93,0-6.2,2.75-6.83,8.25l-0.61,5.41h13.8l-6.57,17.41
		h-9.2l-5.69,50.23h-21.97l5.69-50.23h-10.98L725.62,101.58z"/>
	<path class="st2" d="M771.08,110.56l23.27-11.52l-7.95,70.18h-21.97L771.08,110.56z M786.97,71.98c3.39,0,6.16,1.18,8.3,3.55
		c2.14,2.37,3.02,5.25,2.64,8.64c-0.36,3.21-1.87,6.05-4.51,8.5c-2.65,2.46-5.67,3.69-9.06,3.69c-3.48,0-6.29-1.18-8.44-3.55
		c-2.14-2.37-3.03-5.2-2.65-8.51c0.36-3.22,1.89-6.07,4.59-8.57C780.54,73.23,783.58,71.98,786.97,71.98z"/>
</g>
<g>
	<path class="st3" d="M272.43,171.57l-4.87-15.39c-0.76-2.39-0.56-4.98,0.56-7.22l26.86-54.05l8.44-16.65
		c1.98-3.9,5.98-6.36,10.35-6.36h17.85c0.74,0,1.21,0.8,0.84,1.44l-55.61,98.69c-0.38,0.66-1.46,1.23-2.11,1.23l0,0
		C273.68,173.26,272.74,172.58,272.43,171.57z M241.26,73.16c-0.2-0.62,0.27-1.26,0.92-1.26h16.41c5.15,0,9.74,3.46,11.16,8.42
		l4.58,16.05c0.74,2.61,0.55,5.41-0.55,7.9l-13.23,29.78L241.26,73.16z"/>
</g>
</svg>
