<?xml version="1.0" encoding="utf-8"?>
<!-- Generator: Adobe Illustrator 28.2.0, SVG Export Plug-In . SVG Version: 6.00 Build 0)  -->
<svg version="1.1" id="Layer_1" xmlns="http://www.w3.org/2000/svg" xmlns:xlink="http://www.w3.org/1999/xlink" x="0px" y="0px"
	 viewBox="0 0 822 242" style="enable-background:new 0 0 822 242;" xml:space="preserve">
<style type="text/css">
	.st0{opacity:0.96;fill-rule:evenodd;clip-rule:evenodd;enable-background:new    ;}
</style>
<g>
	<path d="M192.81,150.04c3.49,3.24,6.55,5.56,9.17,6.95c2.62,1.39,5.63,2.08,9.02,2.08c8.34,0,16.42-4.55,24.25-13.66l23.71,15.52
		l-10.7,10.65c-5.63,4.79-12.56,8.72-20.79,11.81c-4.02,1.39-7.92,2.47-11.71,3.24c-3.8,0.77-7.77,1.16-11.94,1.16
		c-17.29,0-31.29-5.92-41.99-17.75c-10.7-11.83-15.06-26.48-13.08-43.96c2.02-17.78,9.73-32.71,23.13-44.77
		c13.41-12.06,28.76-18.1,46.05-18.1c16.36,0,28.07,3.65,35.11,10.94c7.05,7.29,11.77,13.26,14.18,17.92s4.71,10.86,6.92,18.62
		L192.81,150.04z M236.81,100.96c-3.83-7.11-10.68-10.66-20.56-10.66c-7.57,0-14.78,3-21.63,9.01c-6.86,6-10.71,12.74-11.56,20.23
		c-0.07,0.63-0.1,1.6-0.09,2.93c0.01,1.32,0.18,2.77,0.49,4.32L236.81,100.96z"/>
	<path d="M284.4,148.65c7.89,6.25,13.6,9.93,17.16,11.05l8.33,1.68h5.29c5.62,0,10.29-1.23,14.01-3.7c3.72-2.47,5.81-5.71,6.26-9.73
		c0.33-2.93-0.33-5.25-1.99-6.95c-1.56-1.23-4.94-2.7-10.15-4.4l-9-2.32l-9.38-3.01c-15.24-5.86-22.04-15.98-20.41-30.33
		c1.24-10.96,6.94-20.07,17.11-27.33c10.16-7.25,22.65-10.88,37.47-10.88c5.71,0,11.53,0.46,17.45,1.39l9.21,2.55
		c3.29,0.92,7.78,2.86,13.47,5.79L367.78,97.7l-9.44-5.09c-2.48-1.39-5.04-2.43-7.68-3.12c-2.64-0.69-4.71-1.19-6.23-1.51
		c-1.51-0.31-3.28-0.46-5.3-0.46c-4.34,0-7.99,1-10.93,3.01c-2.95,2.01-4.62,4.79-5.02,8.33c-0.63,5.56,3.64,9.57,12.82,12.04
		l9.48,2.55c3.17,0.77,6.24,1.7,9.21,2.78c2.98,1.08,6.01,2.4,9.09,3.94c4.22,2.47,7.36,6.14,9.44,11
		c2.08,4.86,2.81,10.15,2.16,15.86c-1.42,12.51-7.26,22.46-17.51,29.87c-10.26,7.41-23.34,11.11-39.23,11.11
		c-5.1,0-8.71-0.12-10.85-0.35s-4.67-0.66-7.61-1.28c-2.94-0.62-5.32-1.08-7.14-1.39c-3-0.77-5.61-1.54-7.84-2.32
		c-2.23-0.77-6.55-2.85-12.96-6.25L284.4,148.65z"/>
	<path d="M449.9,20.77l-5.2,45.91h24.78l-13.37,30.1h-14.82l-9.84,86.84H393l9.84-86.84h-17.6L449.9,20.77z"/>
	<path d="M473.27,82.19l40.23-19.91l-13.75,121.34h-37.98L473.27,82.19z M500.74,15.5c5.86,0,10.65,2.05,14.36,6.14
		c3.7,4.09,5.22,9.07,4.56,14.94c-0.63,5.56-3.24,10.46-7.8,14.7c-4.57,4.25-9.79,6.37-15.66,6.37c-6.02,0-10.88-2.05-14.59-6.14
		c-3.71-4.09-5.23-8.99-4.59-14.7c0.63-5.56,3.27-10.5,7.93-14.82C489.61,17.66,494.87,15.5,500.74,15.5z"/>
	<path d="M620.91,66.68h36.35l-12.47,109.99c-1.03,9.11-3.14,16.52-6.33,22.23c-3.2,5.71-9.76,12.23-19.7,19.56
		c-9.94,7.33-25.41,11-46.4,11c-8.8,0-16.18-0.62-22.14-1.85c-5.96-1.24-10.79-2.59-14.48-4.05c-3.69-1.47-8.79-4.13-15.3-7.99
		l17.5-25.7l7.94,5.56l10.2,3.94c5.21,1.7,11.29,2.55,18.24,2.55c9.73,0,17.6-2.08,23.63-6.25c6.03-4.17,9.46-9.88,10.28-17.14
		l1.29-11.35c-1.05,1.08-2.02,2.16-2.92,3.24c-1.75,1.85-3.31,3.32-4.66,4.4l-8.14,4.4l-10.76,3.01c-3.77,0.62-6.32,0.96-7.64,1.04
		c-1.33,0.08-2.45,0.12-3.37,0.12c-15.44,0-27.4-5.44-35.89-16.32c-8.49-10.89-11.73-25.2-9.72-42.96
		c2.01-17.75,8.66-32.15,19.95-43.19c11.28-11.04,24.8-16.56,40.55-16.56c6.02,0,11.4,0.89,16.14,2.66
		c4.74,1.78,8.03,3.44,9.86,4.98l6.68,6.49L620.91,66.68z M565.33,125.96c-0.98,8.65,0.53,15.75,4.53,21.3
		c4.19,5.25,9.91,7.87,17.17,7.87c4.17,0,8.05-0.85,11.64-2.55c3.59-1.7,6.22-3.82,7.9-6.37c1.68-2.55,3.08-5.36,4.2-8.45
		l2.24-11.58c0.79-6.95,1.13-12.04,1.04-15.28c-0.1-3.24-0.82-6.06-2.17-8.45c-1.35-2.39-3.66-4.48-6.93-6.25
		c-3.27-1.77-6.69-2.66-10.23-2.66c-7.26,0-13.75,2.86-19.5,8.57c-5.44,5.71-8.66,13.12-9.7,22.23L565.33,125.96z"/>
	<path d="M715.66,150.04c3.49,3.24,6.55,5.56,9.17,6.95c2.62,1.39,5.63,2.08,9.02,2.08c8.34,0,16.42-4.55,24.25-13.66l23.71,15.52
		l-10.7,10.65c-5.63,4.79-12.56,8.72-20.79,11.81c-4.02,1.39-7.92,2.47-11.71,3.24c-3.8,0.77-7.77,1.16-11.94,1.16
		c-17.29,0-31.29-5.92-41.99-17.75c-10.7-11.83-15.06-26.48-13.08-43.96c2.02-17.78,9.73-32.71,23.13-44.77
		c13.41-12.06,28.76-18.1,46.05-18.1c16.36,0,28.07,3.65,35.11,10.94c7.05,7.29,11.77,13.26,14.18,17.92
		c2.4,4.65,4.71,10.86,6.92,18.62L715.66,150.04z M759.67,100.96c-3.83-7.11-10.68-10.66-20.56-10.66c-7.57,0-14.78,3-21.63,9.01
		c-6.86,6-10.71,12.74-11.56,20.23c-0.07,0.63-0.1,1.6-0.09,2.93c0.01,1.32,0.18,2.77,0.49,4.32L759.67,100.96z"/>
	<g>
		<path class="st0" d="M78.97,184.86l-8.43-26.61c-1.31-4.13-0.96-8.61,0.97-12.49l46.44-93.44l14.6-28.79
			c3.42-6.74,10.33-10.99,17.89-10.99h30.85c1.28,0,2.08,1.38,1.46,2.49L86.61,185.65c-0.66,1.15-2.53,2.13-3.65,2.13l0,0
			C81.13,187.78,79.52,186.6,78.97,184.86z M25.08,14.71c-0.34-1.08,0.46-2.18,1.59-2.18h28.37c8.91,0,16.85,5.99,19.29,14.56
			l7.92,27.75c1.29,4.51,0.95,9.36-0.96,13.65l-22.88,51.48L25.08,14.71z"/>
	</g>
</g>
</svg>
