<?xml version="1.0" encoding="utf-8"?>
<!-- Generator: Adobe Illustrator 28.2.0, SVG Export Plug-In . SVG Version: 6.00 Build 0)  -->
<svg version="1.1" id="Layer_1" xmlns="http://www.w3.org/2000/svg" xmlns:xlink="http://www.w3.org/1999/xlink" x="0px" y="0px"
	 viewBox="0 0 1024 206" style="enable-background:new 0 0 1024 206;" xml:space="preserve">
<style type="text/css">
	.st0{fill:#2078E9;}
	.st1{opacity:0.96;fill-rule:evenodd;clip-rule:evenodd;fill:#FFFFFF;enable-background:new    ;}
	.st2{fill:#1A1A1A;}
	.st3{opacity:0.96;fill-rule:evenodd;clip-rule:evenodd;fill:#1A1A1A;enable-background:new    ;}
</style>
<circle class="st0" cx="118.22" cy="103" r="91.22"/>
<path class="st1" d="M104.85,167.84l-5.43-17.15c-0.84-2.66-0.62-5.55,0.62-8.05l29.93-60.23l9.41-18.56
	c2.2-4.34,6.66-7.08,11.53-7.08h19.89c0.82,0,1.34,0.89,0.94,1.61l-61.96,109.97c-0.43,0.74-1.63,1.37-2.35,1.37l0,0
	C106.24,169.72,105.2,168.96,104.85,167.84z M70.12,58.18c-0.22-0.69,0.3-1.4,1.03-1.4h18.29c5.74,0,10.86,3.86,12.43,9.38
	l5.1,17.89c0.83,2.91,0.61,6.03-0.62,8.8L91.6,126.02L70.12,58.18z"/>
<path class="st2" d="M726.56,68.34h23.64l-8.57,75.62h37.74l-7.33,18.55h-56.16L726.56,68.34z"/>
<path class="st2" d="M831.9,96.55h20.64l-7.48,65.96h-20.64l0.83-7.31l-1.79,1.99l-2.48,2.25c-1.16,1.06-3.53,2.17-7.1,3.31
	c-3.57,1.15-7.1,1.72-10.58,1.72c-8.71,0-15.38-3.16-20.02-9.49c-4.64-6.32-6.37-14.63-5.21-24.93
	c1.14-10.03,4.91-18.34,11.32-24.93c6.41-6.59,13.96-9.88,22.67-9.88c1.48,0,3.05,0.13,4.72,0.39c1.67,0.26,3.57,0.74,5.72,1.44
	c2.14,0.7,3.64,1.48,4.5,2.35c0.81,0.52,2.17,1.96,4.08,4.31L831.9,96.55z M800.21,129.53c-0.56,4.98,0.28,9.09,2.52,12.32
	c2.25,3.23,5.55,4.85,9.9,4.85c2.35,0,4.47-0.5,6.37-1.51c1.9-1,3.42-2.29,4.55-3.87c0.85-1.4,1.61-3.1,2.28-5.11l1.37-7.47
	c0.35-3.06,0.48-5.38,0.4-6.95c-0.08-1.57-0.79-3.6-2.12-6.1c-1.33-2.49-4.34-3.74-9.04-3.74c-4.18,0-7.78,1.6-10.8,4.79
	C802.62,119.94,800.81,124.19,800.21,129.53z"/>
<path class="st2" d="M869.13,76.8l22.69-11.24l-4.24,37.39c3.29-2.79,6.54-4.81,9.74-6.07c3.21-1.26,6.74-1.89,10.59-1.89
	c8.66,0,15.44,3.18,20.32,9.53c4.88,6.36,6.76,14.5,5.64,24.42c-1.18,10.45-4.91,18.94-11.18,25.47c-6.27,6.53-13.89,9.8-22.86,9.8
	c-3.74,0-7.08-0.57-10-1.7c-2.92-1.13-4.82-2-5.71-2.61c-0.95-0.87-2.08-2.35-3.42-4.44l-0.8,7.05h-20.51L869.13,76.8z
	 M884.64,128.94l-0.12,1.05c-0.31,2.7-0.41,4.75-0.3,6.14c0.1,1.39,0.82,3.46,2.17,6.2c1.34,2.74,4.41,4.11,9.2,4.11
	c4,0,7.51-1.59,10.53-4.77c3.02-3.18,4.82-7.38,5.41-12.6c0.57-5.05-0.29-9.21-2.57-12.47c-2.29-3.26-5.6-4.9-9.96-4.9
	c-4.96,0-8.23,1.2-9.81,3.59c-1.58,2.4-2.64,4.46-3.19,6.2C885.46,123.24,885.01,125.72,884.64,128.94z"/>
<path class="st2" d="M943.53,142.78c4.45,3.52,7.67,5.6,9.68,6.23l4.7,0.95h2.98c3.17,0,5.81-0.7,7.9-2.09
	c2.1-1.39,3.27-3.22,3.53-5.49c0.19-1.65-0.19-2.96-1.12-3.92c-0.88-0.7-2.79-1.52-5.73-2.48l-5.08-1.31l-5.29-1.7
	c-8.59-3.31-12.43-9.01-11.51-17.11c0.7-6.18,3.92-11.32,9.65-15.41c5.73-4.09,12.78-6.14,21.13-6.14c3.22,0,6.5,0.26,9.84,0.78
	l5.19,1.44c1.85,0.52,4.39,1.61,7.6,3.26l-6.45,14.24l-5.32-2.87c-1.4-0.78-2.84-1.37-4.33-1.76c-1.49-0.39-2.66-0.67-3.52-0.85
	c-0.85-0.17-1.85-0.26-2.99-0.26c-2.45,0-4.51,0.57-6.16,1.7c-1.66,1.13-2.61,2.7-2.83,4.7c-0.36,3.14,2.05,5.4,7.23,6.79l5.35,1.44
	c1.79,0.44,3.52,0.96,5.2,1.57c1.68,0.61,3.39,1.35,5.13,2.22c2.38,1.39,4.15,3.46,5.33,6.2c1.18,2.74,1.58,5.73,1.22,8.95
	c-0.8,7.05-4.09,12.67-9.88,16.85s-13.16,6.27-22.13,6.27c-2.87,0-4.91-0.07-6.12-0.2c-1.2-0.13-2.63-0.37-4.29-0.72
	c-1.66-0.35-3-0.61-4.03-0.78c-1.69-0.44-3.16-0.87-4.42-1.31c-1.26-0.43-3.69-1.61-7.31-3.53L943.53,142.78z"/>
<path class="st2" d="M333.28,143.57c1.97,1.83,3.69,3.13,5.17,3.92c1.48,0.78,3.17,1.18,5.09,1.18c4.7,0,9.26-2.57,13.68-7.71
	l13.37,8.75l-6.04,6.01c-3.18,2.7-7.09,4.92-11.73,6.66c-2.26,0.78-4.47,1.39-6.61,1.83c-2.14,0.43-4.38,0.65-6.74,0.65
	c-9.75,0-17.65-3.34-23.68-10.01c-6.03-6.67-8.49-14.94-7.38-24.8c1.14-10.03,5.49-18.45,13.05-25.25
	c7.56-6.8,16.22-10.21,25.97-10.21c9.23,0,15.83,2.06,19.81,6.17c3.97,4.11,6.64,7.48,8,10.1c1.36,2.62,2.66,6.12,3.9,10.5
	L333.28,143.57z M358.09,115.88c-2.16-4.01-6.02-6.01-11.6-6.01c-4.27,0-8.34,1.69-12.2,5.08c-3.87,3.39-6.04,7.19-6.52,11.41
	c-0.04,0.35-0.06,0.9-0.05,1.65c0.01,0.75,0.1,1.56,0.28,2.44L358.09,115.88z"/>
<path class="st2" d="M384.93,142.78c4.45,3.52,7.67,5.6,9.68,6.23l4.7,0.95h2.98c3.17,0,5.81-0.7,7.9-2.09
	c2.1-1.39,3.27-3.22,3.53-5.49c0.19-1.65-0.19-2.96-1.12-3.92c-0.88-0.7-2.79-1.52-5.73-2.48l-5.08-1.31l-5.29-1.7
	c-8.59-3.31-12.43-9.01-11.51-17.11c0.7-6.18,3.92-11.32,9.65-15.41c5.73-4.09,12.78-6.14,21.13-6.14c3.22,0,6.5,0.26,9.84,0.78
	l5.19,1.44c1.85,0.52,4.39,1.61,7.6,3.26l-6.45,14.24l-5.32-2.87c-1.4-0.78-2.84-1.37-4.33-1.76c-1.49-0.39-2.66-0.67-3.52-0.85
	c-0.85-0.17-1.85-0.26-2.99-0.26c-2.45,0-4.51,0.57-6.16,1.7c-1.66,1.13-2.61,2.7-2.83,4.7c-0.36,3.14,2.05,5.4,7.23,6.79l5.35,1.44
	c1.79,0.44,3.52,0.96,5.2,1.57c1.68,0.61,3.39,1.35,5.13,2.22c2.38,1.39,4.15,3.46,5.33,6.2c1.18,2.74,1.58,5.73,1.22,8.95
	c-0.8,7.05-4.09,12.67-9.88,16.85c-5.79,4.18-13.16,6.27-22.13,6.27c-2.87,0-4.91-0.07-6.12-0.2c-1.2-0.13-2.63-0.37-4.29-0.72
	c-1.66-0.35-3-0.61-4.03-0.78c-1.69-0.44-3.16-0.87-4.42-1.31c-1.26-0.43-3.69-1.61-7.31-3.53L384.93,142.78z"/>
<path class="st2" d="M478.28,70.66l-2.93,25.89h13.97l-7.54,16.98h-8.36l-5.55,48.98h-21.68l5.55-48.98h-9.93L478.28,70.66z"/>
<path class="st2" d="M491.46,105.3l22.69-11.23l-7.76,68.44h-21.42L491.46,105.3z M506.96,67.68c3.31,0,6.01,1.16,8.1,3.46
	c2.09,2.31,2.95,5.12,2.57,8.42c-0.36,3.13-1.83,5.9-4.4,8.29c-2.58,2.4-5.52,3.59-8.83,3.59c-3.4,0-6.14-1.15-8.23-3.46
	c-2.09-2.31-2.95-5.07-2.59-8.29c0.36-3.13,1.85-5.92,4.47-8.36C500.68,68.9,503.65,67.68,506.96,67.68z"/>
<path class="st2" d="M574.73,96.55h20.5l-7.03,62.04c-0.58,5.14-1.77,9.31-3.57,12.54c-1.8,3.22-5.51,6.9-11.11,11.03
	c-5.61,4.13-14.33,6.2-26.17,6.2c-4.96,0-9.13-0.35-12.48-1.05c-3.36-0.7-6.08-1.46-8.17-2.29c-2.08-0.83-4.96-2.33-8.63-4.51
	l9.87-14.5l4.48,3.13l5.76,2.22c2.94,0.96,6.37,1.44,10.29,1.44c5.49,0,9.93-1.18,13.33-3.53c3.4-2.35,5.34-5.57,5.8-9.67l0.73-6.4
	c-0.59,0.61-1.14,1.22-1.65,1.83c-0.99,1.05-1.87,1.87-2.63,2.48l-4.59,2.48l-6.07,1.7c-2.13,0.35-3.57,0.54-4.31,0.59
	c-0.75,0.05-1.38,0.07-1.9,0.07c-8.71,0-15.45-3.07-20.24-9.21c-4.79-6.14-6.62-14.21-5.48-24.23c1.14-10.01,4.88-18.13,11.25-24.36
	c6.36-6.22,13.99-9.34,22.87-9.34c3.39,0,6.43,0.5,9.1,1.5c2.67,1,4.53,1.94,5.56,2.81l3.77,3.66L574.73,96.55z M543.39,129.98
	c-0.55,4.88,0.3,8.88,2.55,12.01c2.36,2.96,5.59,4.44,9.68,4.44c2.35,0,4.54-0.48,6.56-1.44c2.02-0.96,3.51-2.16,4.46-3.59
	c0.95-1.44,1.73-3.02,2.37-4.77l1.26-6.53c0.44-3.92,0.64-6.79,0.58-8.62c-0.05-1.83-0.46-3.42-1.22-4.77
	c-0.76-1.35-2.07-2.52-3.91-3.53c-1.85-1-3.77-1.5-5.77-1.5c-4.09,0-7.76,1.61-11,4.83c-3.07,3.22-4.89,7.4-5.47,12.54
	L543.39,129.98z"/>
<path class="st2" d="M628.18,143.57c1.97,1.83,3.69,3.13,5.17,3.92c1.48,0.78,3.17,1.18,5.09,1.18c4.7,0,9.26-2.57,13.68-7.71
	l13.37,8.75l-6.04,6.01c-3.18,2.7-7.09,4.92-11.73,6.66c-2.26,0.78-4.47,1.39-6.61,1.83c-2.14,0.43-4.38,0.65-6.74,0.65
	c-9.75,0-17.65-3.34-23.68-10.01c-6.03-6.67-8.49-14.94-7.38-24.8c1.14-10.03,5.49-18.45,13.05-25.25
	c7.56-6.8,16.22-10.21,25.97-10.21c9.23,0,15.83,2.06,19.81,6.17c3.97,4.11,6.64,7.48,8,10.1c1.36,2.62,2.66,6.12,3.9,10.5
	L628.18,143.57z M653,115.88c-2.16-4.01-6.02-6.01-11.6-6.01c-4.27,0-8.34,1.69-12.2,5.08c-3.87,3.39-6.04,7.19-6.52,11.41
	c-0.04,0.35-0.06,0.9-0.05,1.65c0.01,0.75,0.1,1.56,0.28,2.44L653,115.88z"/>
<g>
	<path class="st3" d="M269.67,163.21l-4.75-15.01c-0.74-2.33-0.54-4.86,0.55-7.04l26.2-52.7l8.23-16.24c1.93-3.8,5.83-6.2,10.09-6.2
		h17.4c0.72,0,1.18,0.78,0.82,1.41l-54.23,96.23c-0.37,0.65-1.42,1.2-2.06,1.2l0,0C270.89,164.85,269.98,164.19,269.67,163.21z
		 M239.28,67.24c-0.19-0.61,0.26-1.23,0.9-1.23h16c5.03,0,9.5,3.38,10.88,8.21l4.47,15.65c0.73,2.55,0.53,5.28-0.54,7.7l-12.9,29.04
		L239.28,67.24z"/>
</g>
</svg>
